<!DOCTYPE svg PUBLIC "-//W3C//DTD SVG 1.1//EN" "http://www.w3.org/Graphics/SVG/1.1/DTD/svg11.dtd">
<!-- Uploaded to: SVG Repo, www.svgrepo.com, Transformed by: SVG Repo Mixer Tools -->
<svg fill="#2f5386" version="1.1" id="Layer_1" xmlns="http://www.w3.org/2000/svg" xmlns:xlink="http://www.w3.org/1999/xlink" viewBox="0 0 491.525 491.525" xml:space="preserve" width="800px" height="800px" stroke="#2f5386">
<g id="SVGRepo_bgCarrier" stroke-width="0"/>
<g id="SVGRepo_tracerCarrier" stroke-linecap="round" stroke-linejoin="round"/>
<g id="SVGRepo_iconCarrier"> <g> <g> <path d="M299.77,173.132c-1.72-2.58-43.05-63.24-120.98-63.24c-77.925,0-119.26,60.66-120.98,63.24l-3.785,5.68l3.785,5.68 c1.72,2.58,43.055,63.23,120.98,63.23c77.93,0,119.26-60.65,120.98-63.23l3.785-5.68L299.77,173.132z M178.79,227.243 c-53.585,0-87.91-34.56-99.54-48.45c11.565-13.91,45.7-48.42,99.54-48.42c53.6,0,87.93,34.58,99.545,48.46 C266.765,192.743,232.63,227.243,178.79,227.243z"/> </g> </g> <g> <g> <path d="M178.79,142.562c-19.99,0-36.25,16.26-36.25,36.25c0,19.99,16.26,36.25,36.25,36.25c19.99,0,36.25-16.26,36.25-36.25 C215.04,158.822,198.78,142.562,178.79,142.562z M178.79,194.583c-8.695,0-15.77-7.07-15.77-15.77c0-8.7,7.075-15.77,15.77-15.77 c8.695,0,15.77,7.07,15.77,15.77C194.56,187.512,187.485,194.583,178.79,194.583z"/> </g> </g> <g> <g> <rect x="168.553" y="61.463" width="20.48" height="34.232"/> </g> </g> <g> <g> <rect x="238.684" y="88.974" transform="matrix(0.4999 -0.8661 0.8661 0.4999 41.9914 271.1512)" width="34.222" height="20.48"/> </g> </g> <g> <g> <rect x="91.565" y="82.139" transform="matrix(0.8661 -0.4999 0.4999 0.8661 -35.9833 64.1901)" width="20.48" height="34.222"/> </g> </g> <g> <g> <rect x="168.553" y="261.931" width="20.48" height="34.232"/> </g> </g> <g> <g> <rect x="245.559" y="241.297" transform="matrix(0.8661 -0.4999 0.4999 0.8661 -94.9266 162.4957)" width="20.48" height="34.222"/> </g> </g> <g> <g> <rect x="84.632" y="248.158" transform="matrix(0.4999 -0.8661 0.8661 0.4999 -172.9111 217.3363)" width="34.222" height="20.48"/> </g> </g> <g> <g> <path d="M472.065,378.153l-80.155-80.16c-7.975-7.97-20.98-7.97-28.965,0l-9.357,9.357l-27.419-27.421 c20.364-29.545,31.411-64.459,31.411-101.116c0-47.76-18.6-92.65-52.37-126.42c-33.765-33.77-78.665-52.37-126.42-52.37 c-47.755,0-92.655,18.6-126.42,52.37C18.6,86.163,0,131.053,0,178.812c0,47.76,18.6,92.65,52.37,126.42 c34.86,34.86,80.63,52.29,126.42,52.28c35.393,0,70.729-10.54,101.074-31.371l27.464,27.467l-9.353,9.353 c-7.99,7.99-7.99,20.98,0,28.97l80.155,80.15c12.95,12.95,29.96,19.42,46.97,19.42c17.01,0,34.02-6.47,46.965-19.42 c12.55-12.54,19.46-29.22,19.46-46.97C491.525,407.372,484.615,390.693,472.065,378.153z M66.85,290.753 c-29.9-29.9-46.37-69.65-46.37-111.94c0-42.29,16.47-82.04,46.37-111.94c29.9-29.9,69.655-46.37,111.94-46.37 c42.285,0,82.04,16.47,111.94,46.37c29.9,29.9,46.37,69.65,46.37,111.94c0,42.29-16.47,82.04-46.37,111.94 C229.01,352.473,128.57,352.473,66.85,290.753z M296.124,313.443c3.066-2.674,6.167-5.291,9.086-8.21 c2.908-2.908,5.549-6.005,8.231-9.073l25.668,25.67l-17.3,17.3L296.124,313.443z M457.585,457.603 c-17.91,17.9-47.055,17.9-64.975,0l-80.165-80.15l64.985-64.98l80.155,80.16c8.68,8.68,13.46,20.21,13.46,32.48 C471.045,437.393,466.265,448.923,457.585,457.603z"/> </g> </g> <g> <g> <rect x="403.296" y="403.379" transform="matrix(0.7074 -0.7069 0.7069 0.7074 -171.3508 413.3559)" width="20.48" height="20.48"/> </g> </g> <g> <g> <rect x="374.432" y="374.448" transform="matrix(0.7071 -0.7071 0.7071 0.7071 -159.3477 384.6768)" width="20.48" height="20.48"/> </g> </g> </g>
</svg>